<svg width="38" height="45" viewBox="0 0 38 45" fill="none" xmlns="http://www.w3.org/2000/svg">
<path d="M34.0141 8.78729L24.3997 1.7795C21.1758 -0.570959 16.8295 -0.570959 13.6035 1.7795L3.9871 8.78729C1.57429 10.5465 0.142578 13.3741 0.142578 16.3863V28.6137C0.142578 31.6259 1.57224 34.4535 3.9871 36.2127L13.6015 43.2205C16.8254 45.571 21.1717 45.571 24.3977 43.2205L34.0121 36.2127C36.4249 34.4535 37.8566 31.6259 37.8566 28.6137V16.3863C37.8566 13.3741 36.4269 10.5465 34.0141 8.78729ZM15.7624 4.8187C17.6979 3.40801 20.3053 3.40801 22.2389 4.8187L30.3437 10.7249C30.9295 11.1523 30.9295 12.034 30.3437 12.4613L22.2389 18.3675C20.3033 19.7782 17.6959 19.7782 15.7624 18.3675L7.65753 12.4613C7.07173 12.034 7.07173 11.1523 7.65753 10.7249L15.7624 4.8187ZM34.1616 28.6116C34.1616 30.4185 33.3034 32.1155 31.8553 33.1714L22.2409 40.1792C20.3053 41.5899 17.6979 41.5899 15.7644 40.1792L6.15003 33.1714C4.70193 32.1155 3.84373 30.4185 3.84373 28.6116V16.3843C3.84373 16.378 3.84373 16.3718 3.84373 16.3656C3.84577 15.5005 4.81868 15.0026 5.51098 15.5067L13.6056 21.4067C16.8295 23.7572 21.1758 23.7572 24.4018 21.4067L32.4964 15.5067C33.1907 15.0005 34.1616 15.4984 34.1636 16.3656C34.1636 16.3718 34.1636 16.378 34.1636 16.3843V28.6116H34.1616Z" fill="#225AEA"/>
<path d="M24.3101 25.1124C22.7022 25.4319 21.6351 26.7202 20.8424 28.2014C20.609 28.6371 20.6253 29.1847 20.9879 29.4773C21.2562 29.693 21.6105 29.6806 21.8707 29.4544C22.8661 28.5956 24.0274 28.1101 24.7791 27.9442C25.5308 27.7782 26.7659 27.7326 27.9641 28.106C28.2796 28.2035 28.6114 28.0624 28.7916 27.7492C29.0374 27.3218 28.8736 26.8115 28.5213 26.5003C27.2391 25.3697 25.9425 24.7867 24.3101 25.1124Z" fill="#225AEA"/>
<path d="M13.6888 25.1124C15.2967 25.4319 16.3638 26.7202 17.1565 28.2014C17.39 28.6371 17.3736 29.1847 17.011 29.4773C16.7427 29.693 16.3884 29.6806 16.1283 29.4544C15.1328 28.5956 13.9715 28.1101 13.2198 27.9442C12.4681 27.7782 11.233 27.7326 10.0348 28.106C9.71935 28.2035 9.38754 28.0624 9.20729 27.7492C8.96151 27.3218 9.12536 26.8115 9.47766 26.5003C10.7598 25.3697 12.0564 24.7867 13.6888 25.1124Z" fill="#225AEA"/>
</svg>
